<mxfile host="app.diagrams.net" modified="2024-06-28T13:05:20.010Z" agent="Mozilla/5.0 (Windows NT 10.0; Win64; x64) AppleWebKit/537.36 (KHTML, like Gecko) Chrome/126.0.0.0 Safari/537.36" etag="qNvtzzPAH9ePjiI7LZJq" version="24.6.4" type="device">
  <diagram name="Page-1" id="5qx6sU7Y0epxpJmRsQBn">
    <mxGraphModel dx="1861" dy="452" grid="1" gridSize="10" guides="1" tooltips="1" connect="1" arrows="1" fold="1" page="1" pageScale="1" pageWidth="827" pageHeight="1169" math="0" shadow="0">
      <root>
        <mxCell id="0" />
        <mxCell id="1" parent="0" />
        <mxCell id="tJ0kWofqdE7yvcTzcn9S-2" value="" style="verticalLabelPosition=bottom;verticalAlign=top;html=1;shadow=0;dashed=0;strokeWidth=1;shape=mxgraph.android.phone2;strokeColor=#c0c0c0;" vertex="1" parent="1">
          <mxGeometry x="310" y="40" width="200" height="390" as="geometry" />
        </mxCell>
        <mxCell id="tJ0kWofqdE7yvcTzcn9S-3" value="Sign up" style="rounded=0;whiteSpace=wrap;html=1;" vertex="1" parent="1">
          <mxGeometry x="375" y="360" width="70" height="30" as="geometry" />
        </mxCell>
        <mxCell id="tJ0kWofqdE7yvcTzcn9S-4" value="Login" style="rounded=0;whiteSpace=wrap;html=1;" vertex="1" parent="1">
          <mxGeometry x="380" y="330" width="60" height="30" as="geometry" />
        </mxCell>
        <mxCell id="tJ0kWofqdE7yvcTzcn9S-5" value="Email&lt;div&gt;&lt;br&gt;&lt;/div&gt;" style="rounded=0;whiteSpace=wrap;html=1;" vertex="1" parent="1">
          <mxGeometry x="319" y="210" width="170" height="30" as="geometry" />
        </mxCell>
        <mxCell id="tJ0kWofqdE7yvcTzcn9S-6" value="Password&lt;div&gt;&lt;br&gt;&lt;/div&gt;" style="rounded=0;whiteSpace=wrap;html=1;" vertex="1" parent="1">
          <mxGeometry x="319.5" y="250" width="169" height="30" as="geometry" />
        </mxCell>
        <mxCell id="tJ0kWofqdE7yvcTzcn9S-7" value="Password&lt;div&gt;&lt;br&gt;&lt;/div&gt;" style="rounded=0;whiteSpace=wrap;html=1;" vertex="1" parent="1">
          <mxGeometry x="320" y="290" width="170" height="30" as="geometry" />
        </mxCell>
        <mxCell id="tJ0kWofqdE7yvcTzcn9S-9" value="On Sign up&lt;div&gt;&lt;br&gt;&lt;/div&gt;" style="text;html=1;align=center;verticalAlign=middle;whiteSpace=wrap;rounded=0;" vertex="1" parent="1">
          <mxGeometry x="349" width="130" height="60" as="geometry" />
        </mxCell>
        <mxCell id="tJ0kWofqdE7yvcTzcn9S-12" value="" style="verticalLabelPosition=bottom;verticalAlign=top;html=1;shadow=0;dashed=0;strokeWidth=1;shape=mxgraph.android.phone2;strokeColor=#c0c0c0;" vertex="1" parent="1">
          <mxGeometry x="580" y="40" width="200" height="390" as="geometry" />
        </mxCell>
        <mxCell id="tJ0kWofqdE7yvcTzcn9S-13" value="&lt;div&gt;Onboarding&lt;/div&gt;&lt;div&gt;&lt;br&gt;&lt;/div&gt;" style="text;html=1;align=center;verticalAlign=middle;whiteSpace=wrap;rounded=0;" vertex="1" parent="1">
          <mxGeometry x="610" width="130" height="60" as="geometry" />
        </mxCell>
        <mxCell id="tJ0kWofqdE7yvcTzcn9S-14" value="&lt;div&gt;Set Hotel Budget&lt;/div&gt;" style="rounded=0;whiteSpace=wrap;html=1;" vertex="1" parent="1">
          <mxGeometry x="595" y="90" width="170" height="30" as="geometry" />
        </mxCell>
        <mxCell id="tJ0kWofqdE7yvcTzcn9S-15" value="&lt;div&gt;Set Holiday Dates&lt;/div&gt;" style="rounded=0;whiteSpace=wrap;html=1;" vertex="1" parent="1">
          <mxGeometry x="590" y="260" width="170" height="30" as="geometry" />
        </mxCell>
        <mxCell id="tJ0kWofqdE7yvcTzcn9S-16" value="&lt;div&gt;Set UserName&lt;/div&gt;" style="rounded=0;whiteSpace=wrap;html=1;" vertex="1" parent="1">
          <mxGeometry x="318.5" y="170" width="170" height="30" as="geometry" />
        </mxCell>
        <mxCell id="tJ0kWofqdE7yvcTzcn9S-17" value="&lt;div&gt;Set User Image&lt;/div&gt;" style="rounded=0;whiteSpace=wrap;html=1;" vertex="1" parent="1">
          <mxGeometry x="349" y="80" width="110" height="80" as="geometry" />
        </mxCell>
        <mxCell id="tJ0kWofqdE7yvcTzcn9S-18" value="&lt;div&gt;Set Holiday Destination&lt;/div&gt;" style="rounded=0;whiteSpace=wrap;html=1;" vertex="1" parent="1">
          <mxGeometry x="590" y="300" width="170" height="30" as="geometry" />
        </mxCell>
        <mxCell id="tJ0kWofqdE7yvcTzcn9S-19" value="Submit" style="rounded=0;whiteSpace=wrap;html=1;" vertex="1" parent="1">
          <mxGeometry x="645" y="360" width="60" height="30" as="geometry" />
        </mxCell>
        <mxCell id="tJ0kWofqdE7yvcTzcn9S-31" value="" style="edgeStyle=orthogonalEdgeStyle;rounded=0;orthogonalLoop=1;jettySize=auto;html=1;" edge="1" parent="1" source="tJ0kWofqdE7yvcTzcn9S-20" target="tJ0kWofqdE7yvcTzcn9S-30">
          <mxGeometry relative="1" as="geometry" />
        </mxCell>
        <mxCell id="tJ0kWofqdE7yvcTzcn9S-20" value="" style="verticalLabelPosition=bottom;verticalAlign=top;html=1;shadow=0;dashed=0;strokeWidth=1;shape=mxgraph.android.phone2;strokeColor=#c0c0c0;" vertex="1" parent="1">
          <mxGeometry x="827" y="40" width="200" height="390" as="geometry" />
        </mxCell>
        <mxCell id="tJ0kWofqdE7yvcTzcn9S-21" value="&lt;div&gt;Dashboard&lt;/div&gt;" style="text;html=1;align=center;verticalAlign=middle;whiteSpace=wrap;rounded=0;" vertex="1" parent="1">
          <mxGeometry x="857" width="130" height="60" as="geometry" />
        </mxCell>
        <mxCell id="tJ0kWofqdE7yvcTzcn9S-22" value="Graph" style="rounded=0;whiteSpace=wrap;html=1;" vertex="1" parent="1">
          <mxGeometry x="857" y="80" width="110" height="80" as="geometry" />
        </mxCell>
        <mxCell id="tJ0kWofqdE7yvcTzcn9S-23" value="&lt;div&gt;Add expenditure&lt;/div&gt;" style="rounded=0;whiteSpace=wrap;html=1;" vertex="1" parent="1">
          <mxGeometry x="850" y="180" width="83" height="30" as="geometry" />
        </mxCell>
        <mxCell id="tJ0kWofqdE7yvcTzcn9S-24" value="Expense" style="rounded=0;whiteSpace=wrap;html=1;" vertex="1" parent="1">
          <mxGeometry x="837" y="280" width="170" height="30" as="geometry" />
        </mxCell>
        <mxCell id="tJ0kWofqdE7yvcTzcn9S-25" value="&lt;div&gt;Delete E&lt;span style=&quot;background-color: initial;&quot;&gt;xpenditure&lt;/span&gt;&lt;/div&gt;" style="rounded=0;whiteSpace=wrap;html=1;" vertex="1" parent="1">
          <mxGeometry x="924" y="180" width="83" height="30" as="geometry" />
        </mxCell>
        <mxCell id="tJ0kWofqdE7yvcTzcn9S-26" value="Expense" style="rounded=0;whiteSpace=wrap;html=1;" vertex="1" parent="1">
          <mxGeometry x="837" y="320" width="170" height="30" as="geometry" />
        </mxCell>
        <mxCell id="tJ0kWofqdE7yvcTzcn9S-27" value="Expense" style="rounded=0;whiteSpace=wrap;html=1;" vertex="1" parent="1">
          <mxGeometry x="837" y="360" width="170" height="30" as="geometry" />
        </mxCell>
        <mxCell id="tJ0kWofqdE7yvcTzcn9S-28" value="&lt;div&gt;Set Food Budget&lt;/div&gt;" style="rounded=0;whiteSpace=wrap;html=1;" vertex="1" parent="1">
          <mxGeometry x="595" y="130" width="170" height="30" as="geometry" />
        </mxCell>
        <mxCell id="tJ0kWofqdE7yvcTzcn9S-29" value="&lt;div&gt;Set Travel Budget&lt;/div&gt;" style="rounded=0;whiteSpace=wrap;html=1;" vertex="1" parent="1">
          <mxGeometry x="595" y="170" width="170" height="30" as="geometry" />
        </mxCell>
        <mxCell id="tJ0kWofqdE7yvcTzcn9S-30" value="" style="rounded=0;whiteSpace=wrap;html=1;" vertex="1" parent="1">
          <mxGeometry x="1070" y="130" width="200" height="300" as="geometry" />
        </mxCell>
        <mxCell id="tJ0kWofqdE7yvcTzcn9S-32" value="&lt;div&gt;Add expenditure&lt;/div&gt;" style="rounded=0;whiteSpace=wrap;html=1;" vertex="1" parent="1">
          <mxGeometry x="1128.5" y="100" width="83" height="30" as="geometry" />
        </mxCell>
        <mxCell id="tJ0kWofqdE7yvcTzcn9S-33" value="&lt;div&gt;Date&lt;/div&gt;&lt;div&gt;&lt;br&gt;&lt;/div&gt;" style="rounded=0;whiteSpace=wrap;html=1;" vertex="1" parent="1">
          <mxGeometry x="1128.5" y="150" width="83" height="30" as="geometry" />
        </mxCell>
        <mxCell id="tJ0kWofqdE7yvcTzcn9S-34" value="&lt;div&gt;Category&lt;/div&gt;&lt;div&gt;&lt;br&gt;&lt;/div&gt;" style="rounded=0;whiteSpace=wrap;html=1;" vertex="1" parent="1">
          <mxGeometry x="1128.5" y="180" width="83" height="30" as="geometry" />
        </mxCell>
        <mxCell id="tJ0kWofqdE7yvcTzcn9S-35" value="&lt;div&gt;Completed?&lt;/div&gt;&lt;div&gt;&lt;br&gt;&lt;/div&gt;" style="rounded=0;whiteSpace=wrap;html=1;" vertex="1" parent="1">
          <mxGeometry x="1128.5" y="210" width="83" height="30" as="geometry" />
        </mxCell>
        <mxCell id="tJ0kWofqdE7yvcTzcn9S-36" value="&lt;div&gt;Value&lt;/div&gt;" style="rounded=0;whiteSpace=wrap;html=1;" vertex="1" parent="1">
          <mxGeometry x="1110" y="240" width="60" height="30" as="geometry" />
        </mxCell>
        <mxCell id="tJ0kWofqdE7yvcTzcn9S-37" value="&lt;div&gt;Currency&lt;/div&gt;&lt;div&gt;&lt;br&gt;&lt;/div&gt;" style="rounded=0;whiteSpace=wrap;html=1;" vertex="1" parent="1">
          <mxGeometry x="1170" y="240" width="60" height="30" as="geometry" />
        </mxCell>
        <mxCell id="tJ0kWofqdE7yvcTzcn9S-38" value="&lt;div&gt;Set Home Currency&lt;/div&gt;" style="rounded=0;whiteSpace=wrap;html=1;" vertex="1" parent="1">
          <mxGeometry x="595" y="200" width="170" height="30" as="geometry" />
        </mxCell>
        <mxCell id="tJ0kWofqdE7yvcTzcn9S-39" value="&lt;div&gt;Description&lt;/div&gt;&lt;div&gt;&lt;br&gt;&lt;/div&gt;" style="rounded=0;whiteSpace=wrap;html=1;" vertex="1" parent="1">
          <mxGeometry x="1128.5" y="270" width="83" height="30" as="geometry" />
        </mxCell>
        <mxCell id="tJ0kWofqdE7yvcTzcn9S-40" value="&lt;div&gt;Split Bill&lt;/div&gt;" style="rounded=0;whiteSpace=wrap;html=1;" vertex="1" parent="1">
          <mxGeometry x="1128.5" y="300" width="83" height="30" as="geometry" />
        </mxCell>
        <mxCell id="tJ0kWofqdE7yvcTzcn9S-41" value="" style="rounded=0;whiteSpace=wrap;html=1;" vertex="1" parent="1">
          <mxGeometry x="1128.5" y="330" width="83" height="30" as="geometry" />
        </mxCell>
        <mxCell id="tJ0kWofqdE7yvcTzcn9S-42" value="" style="verticalLabelPosition=bottom;verticalAlign=top;html=1;shadow=0;dashed=0;strokeWidth=1;shape=mxgraph.android.phone2;strokeColor=#c0c0c0;" vertex="1" parent="1">
          <mxGeometry x="90" y="40" width="200" height="390" as="geometry" />
        </mxCell>
        <mxCell id="tJ0kWofqdE7yvcTzcn9S-43" value="&lt;div&gt;Login&lt;/div&gt;&lt;div&gt;&lt;br&gt;&lt;/div&gt;" style="text;html=1;align=center;verticalAlign=middle;whiteSpace=wrap;rounded=0;" vertex="1" parent="1">
          <mxGeometry x="125" width="130" height="60" as="geometry" />
        </mxCell>
        <mxCell id="tJ0kWofqdE7yvcTzcn9S-44" value="Email&lt;div&gt;&lt;br&gt;&lt;/div&gt;" style="rounded=0;whiteSpace=wrap;html=1;" vertex="1" parent="1">
          <mxGeometry x="105" y="210" width="170" height="30" as="geometry" />
        </mxCell>
        <mxCell id="tJ0kWofqdE7yvcTzcn9S-45" value="Password&lt;div&gt;&lt;br&gt;&lt;/div&gt;" style="rounded=0;whiteSpace=wrap;html=1;" vertex="1" parent="1">
          <mxGeometry x="106" y="250" width="169" height="30" as="geometry" />
        </mxCell>
        <mxCell id="tJ0kWofqdE7yvcTzcn9S-46" value="Login" style="rounded=0;whiteSpace=wrap;html=1;" vertex="1" parent="1">
          <mxGeometry x="155" y="300" width="60" height="30" as="geometry" />
        </mxCell>
        <mxCell id="tJ0kWofqdE7yvcTzcn9S-47" value="Sign up" style="rounded=0;whiteSpace=wrap;html=1;" vertex="1" parent="1">
          <mxGeometry x="150" y="330" width="70" height="30" as="geometry" />
        </mxCell>
        <mxCell id="tJ0kWofqdE7yvcTzcn9S-49" value="" style="verticalLabelPosition=bottom;verticalAlign=top;html=1;shadow=0;dashed=0;strokeWidth=1;shape=mxgraph.android.phone2;strokeColor=#c0c0c0;" vertex="1" parent="1">
          <mxGeometry x="-150" y="40" width="200" height="390" as="geometry" />
        </mxCell>
        <mxCell id="tJ0kWofqdE7yvcTzcn9S-50" value="&lt;div&gt;Logo&lt;/div&gt;" style="rounded=0;whiteSpace=wrap;html=1;" vertex="1" parent="1">
          <mxGeometry x="-110" y="150" width="110" height="80" as="geometry" />
        </mxCell>
        <mxCell id="tJ0kWofqdE7yvcTzcn9S-51" value="&lt;div&gt;App Name?&lt;/div&gt;" style="rounded=0;whiteSpace=wrap;html=1;" vertex="1" parent="1">
          <mxGeometry x="-135" y="90" width="170" height="30" as="geometry" />
        </mxCell>
        <mxCell id="tJ0kWofqdE7yvcTzcn9S-52" value="&lt;div&gt;Footer&lt;/div&gt;" style="rounded=0;whiteSpace=wrap;html=1;" vertex="1" parent="1">
          <mxGeometry x="-135" y="340" width="170" height="30" as="geometry" />
        </mxCell>
        <mxCell id="tJ0kWofqdE7yvcTzcn9S-53" value="" style="verticalLabelPosition=bottom;verticalAlign=top;html=1;shadow=0;dashed=0;strokeWidth=1;shape=mxgraph.android.phone2;strokeColor=#c0c0c0;" vertex="1" parent="1">
          <mxGeometry x="-360" y="40" width="200" height="390" as="geometry" />
        </mxCell>
        <mxCell id="tJ0kWofqdE7yvcTzcn9S-54" value="&lt;div&gt;Splash Screen&lt;/div&gt;" style="text;html=1;align=center;verticalAlign=middle;whiteSpace=wrap;rounded=0;" vertex="1" parent="1">
          <mxGeometry x="-120" width="130" height="60" as="geometry" />
        </mxCell>
        <mxCell id="tJ0kWofqdE7yvcTzcn9S-55" value="&lt;div&gt;Generic&lt;/div&gt;" style="text;html=1;align=center;verticalAlign=middle;whiteSpace=wrap;rounded=0;" vertex="1" parent="1">
          <mxGeometry x="-325" width="130" height="60" as="geometry" />
        </mxCell>
        <mxCell id="tJ0kWofqdE7yvcTzcn9S-56" value="&lt;div&gt;Logo&lt;/div&gt;" style="rounded=0;whiteSpace=wrap;html=1;" vertex="1" parent="1">
          <mxGeometry x="-340" y="85" width="45" height="40" as="geometry" />
        </mxCell>
        <mxCell id="tJ0kWofqdE7yvcTzcn9S-57" value="&lt;div&gt;App Name&lt;/div&gt;" style="rounded=0;whiteSpace=wrap;html=1;" vertex="1" parent="1">
          <mxGeometry x="-280" y="90" width="100" height="30" as="geometry" />
        </mxCell>
        <mxCell id="tJ0kWofqdE7yvcTzcn9S-58" value="&lt;div&gt;Footer&lt;/div&gt;" style="rounded=0;whiteSpace=wrap;html=1;" vertex="1" parent="1">
          <mxGeometry x="-345" y="340" width="170" height="30" as="geometry" />
        </mxCell>
      </root>
    </mxGraphModel>
  </diagram>
</mxfile>
